HIERARCHY
ROOT Hips
{
	OFFSET -13.091600 -28.302996 44.698402
	CHANNELS 6 Xposition Yposition Zposition Zrotation Xrotation Yrotation
	JOINT Chest
	{
		OFFSET -0.673000 0.623899 5.369202
		CHANNELS 6 Xposition Yposition Zposition Zrotation Xrotation Yrotation
		JOINT Chest2
		{
			OFFSET 0.000000 0.000000 4.415001
			CHANNELS 6 Xposition Yposition Zposition Zrotation Xrotation Yrotation
			JOINT Neck
			{
				OFFSET 0.000000 0.000002 10.273300
				CHANNELS 6 Xposition Yposition Zposition Zrotation Xrotation Yrotation
				JOINT Head
				{
					OFFSET 0.000000 0.000000 2.173897
					CHANNELS 6 Xposition Yposition Zposition Zrotation Xrotation Yrotation
					End Site
					{
						OFFSET 0.000000 0.000000 9.961800
					}
				}
			}
			JOINT LeftCollar
			{
				OFFSET 2.359900 -0.565201 5.928101
				CHANNELS 6 Xposition Yposition Zposition Zrotation Xrotation Yrotation
				JOINT LeftShoulder
				{
					OFFSET 5.443700 0.000000 0.000000
					CHANNELS 6 Xposition Yposition Zposition Zrotation Xrotation Yrotation
					JOINT LeftElbow
					{
						OFFSET 0.000000 0.000000 -10.615799
						CHANNELS 6 Xposition Yposition Zposition Zrotation Xrotation Yrotation
						JOINT LeftWrist
						{
							OFFSET 0.000000 -0.000002 -13.110302
							CHANNELS 6 Xposition Yposition Zposition Zrotation Xrotation Yrotation
							End Site
							{
								OFFSET 0.000000 0.000000 -2.173901
							}
						}
					}
				}
			}
			JOINT RightCollar
			{
				OFFSET -2.636600 -1.718800 6.889698
				CHANNELS 6 Xposition Yposition Zposition Zrotation Xrotation Yrotation
				JOINT RightShoulder
				{
					OFFSET -4.139101 0.000000 0.000000
					CHANNELS 6 Xposition Yposition Zposition Zrotation Xrotation Yrotation
					JOINT RightElbow
					{
						OFFSET 0.000000 0.000000 -10.471802
						CHANNELS 6 Xposition Yposition Zposition Zrotation Xrotation Yrotation
						JOINT RightWrist
						{
							OFFSET 0.000000 0.000000 -12.281898
							CHANNELS 6 Xposition Yposition Zposition Zrotation Xrotation Yrotation
							End Site
							{
								OFFSET 0.000000 -0.000002 -2.173901
							}
						}
					}
				}
			}
		}
	}
	JOINT LeftHip
	{
		OFFSET 2.273400 0.176701 -2.518002
		CHANNELS 6 Xposition Yposition Zposition Zrotation Xrotation Yrotation
		JOINT LeftKnee
		{
			OFFSET 0.000000 -0.000002 -20.456402
			CHANNELS 6 Xposition Yposition Zposition Zrotation Xrotation Yrotation
			JOINT LeftAnkle
			{
				OFFSET 0.000000 -0.000002 -16.635300
				CHANNELS 6 Xposition Yposition Zposition Zrotation Xrotation Yrotation
				End Site
				{
					OFFSET 0.000000 -8.812399 0.000001
				}
			}
		}
	}
	JOINT RightHip
	{
		OFFSET -1.914800 0.018101 -2.699299
		CHANNELS 6 Xposition Yposition Zposition Zrotation Xrotation Yrotation
		JOINT RightKnee
		{
			OFFSET 0.000000 -0.000002 -20.148901
			CHANNELS 6 Xposition Yposition Zposition Zrotation Xrotation Yrotation
			JOINT RightAnkle
			{
				OFFSET 0.000000 -0.000002 -16.838301
				CHANNELS 6 Xposition Yposition Zposition Zrotation Xrotation Yrotation
				End Site
				{
					OFFSET 0.000000 -8.328398 0.000001
				}
			}
		}
	}
}
MOTION
Frames: 4
Frame Time: 0.041667
-48.663399 -33.850700 18.849600 3207.710371 10.973478 -3.882317 -0.673004 0.623895 5.369208 1.476270 19.648760 6.279740 0.000002 -0.000005 4.415006 -4.382560 -3.275862 -0.581335 0.000008 -0.000002 10.273306 -20.854174 24.547866 -1.707116 -0.000003 0.000010 2.173898 -0.020235 -1.106295 -2.549516 2.359903 -0.565202 5.928097 7.487074 -1.045551 -7.114825 5.443705 0.000001 -0.000004 -28.692153 393.997714 -23.307863 0.000003 -0.000006 -10.615788 910.214887 -160.067327 182.523856 0.000006 -0.000001 -13.110302 -2317.037092 194.390449 -485.745241 -2.636595 -1.718799 6.889697 178.957513 -175.384477 168.851442 -4.139101 -0.000004 0.000000 -387.569631 29.965194 53.179600 0.000000 0.000003 -10.471796 11.772092 -24.157151 -372.135371 0.000000 -0.000003 -12.281898 197.506804 195.653187 165.770590 2.273394 0.176697 -2.518002 -402.533920 -148.311192 -53.241263 -0.000000 -0.000004 -20.456398 1121.227462 157.779911 -50.193298 -0.000003 -0.000008 -16.635300 -641.607753 10.102343 41.237363 -1.914799 0.018105 -2.699300 66.413310 203.361916 104.731402 -0.000001 -0.000008 -20.148903 -656.917486 -204.009281 -4.388996 0.000003 -0.000009 -16.838295 1035.548694 13.799805 17.157447
-48.678505 -33.824696 18.820496 3208.105101 10.387373 -3.848728 -0.673000 0.623904 5.369210 29.092685 22.696941 -2.421394 -0.000004 -0.000001 4.415010 -29.660694 -3.796030 -2.936969 -0.000002 0.000010 10.273295 -21.645546 24.029008 -1.292329 -0.000002 0.000004 2.173888 -0.014926 -1.032366 -2.559753 2.359896 -0.565199 5.928098 7.380159 -1.248904 -6.355877 5.443692 0.000000 0.000001 -29.946978 394.311520 -20.055590 0.000004 -0.000002 -10.615795 910.829331 -157.564118 182.976738 0.000006 -0.000008 -13.110304 -2313.909412 194.977066 -485.092548 -2.636599 -1.718799 6.889697 178.786526 -175.176676 168.689622 -4.139102 -0.000001 0.000002 -390.299248 30.370706 54.529491 -0.000003 0.000003 -10.471794 6.563231 -29.205998 -377.312709 0.000002 0.000002 -12.281900 196.879697 196.717781 165.169875 2.273409 0.176703 -2.518003 -402.989248 -147.483291 -52.849798 0.000004 -0.000002 -20.456406 1121.225167 157.579294 -50.210145 -0.000000 -0.000002 -16.635296 -641.427655 10.398843 41.229768 -1.914789 0.018110 -2.699299 66.884122 203.757507 105.358748 -0.000000 -0.000002 -20.148907 -656.879892 -203.927619 -4.399214 0.000001 -0.000003 -16.838308 1035.961566 14.289027 16.445955
-48.677597 -33.821499 18.778797 3207.770258 9.489098 -3.532817 -0.672998 0.623891 5.369201 29.657477 23.651238 -3.727658 0.000002 0.000004 4.415003 -28.596559 -3.912016 -2.861035 0.000002 -0.000001 10.273300 -22.535547 23.464900 -0.791084 -0.000003 0.000000 2.173896 -0.033606 -0.936131 -2.569609 2.359902 -0.565200 5.928092 7.194140 -1.362129 -5.726498 5.443696 -0.000006 -0.000003 -31.050436 394.487220 -16.849377 -0.000001 0.000003 -10.615799 911.785667 -154.995133 183.553507 0.000004 -0.000004 -13.110302 -2311.452511 195.525298 -484.387727 -2.636600 -1.718799 6.889698 178.594735 -174.968287 168.619516 -4.139095 0.000006 -0.000003 -393.106155 30.859911 55.949266 -0.000005 0.000001 -10.471790 1.129211 -34.135844 -383.417423 0.000014 -0.000003 -12.281897 195.237078 197.376375 164.109228 2.273401 0.176704 -2.518010 -402.871140 -146.357225 -52.529045 0.000008 -0.000005 -20.456406 1121.160580 157.271936 -50.171387 -0.000005 -0.000005 -16.635296 -641.276790 10.698254 41.165448 -1.914789 0.018106 -2.699301 68.415915 204.484567 106.398863 0.000003 -0.000004 -20.148895 -657.334291 -203.856995 -4.311683 0.000001 -0.000003 -16.838301 1036.223626 14.867353 15.734901
-48.665497 -33.816101 18.739405 3207.412684 8.726838 -3.266103 -0.672997 0.623892 5.369205 30.246434 24.407717 -4.973743 0.000006 0.000000 4.415003 -27.468741 -4.014748 -2.778451 -0.000009 -0.000001 10.273292 -23.521746 22.908945 -0.232893 -0.000006 0.000002 2.173898 -0.061001 -0.847594 -2.626217 2.359892 -0.565204 5.928094 6.931177 -1.393235 -5.270142 5.443698 -0.000009 0.000001 -32.029185 394.533364 -13.741351 -0.000003 -0.000000 -10.615788 914.368079 -152.451885 184.934229 0.000005 0.000002 -13.110298 -2310.592016 196.144373 -482.802413 -2.636609 -1.718802 6.889693 178.434935 -174.802040 168.637589 -4.139097 0.000000 -0.000003 -395.934373 31.375297 57.270446 0.000003 0.000001 -10.471799 -4.715649 -38.768372 -390.439131 0.000009 -0.000002 -12.281902 193.737127 197.815146 163.505768 2.273396 0.176697 -2.518001 -402.728499 -145.415137 -52.166495 0.000003 -0.000004 -20.456390 1121.238281 157.192064 -50.237035 -0.000004 -0.000006 -16.635298 -640.863645 10.972263 41.144247 -1.914795 0.018101 -2.699299 70.055461 205.288138 107.272492 0.000009 -0.000007 -20.148918 -658.015015 -203.811124 -4.191809 -0.000004 -0.000003 -16.838293 1036.334767 15.489211 15.086619
